<?xml version="1.0" standalone="no"?>
<!DOCTYPE svg PUBLIC "-//W3C//DTD SVG 20010904//EN"
 "http://www.w3.org/TR/2001/REC-SVG-20010904/DTD/svg10.dtd">
<svg version="1.0" xmlns="http://www.w3.org/2000/svg"
 width="544.000000pt" height="544.000000pt" viewBox="0 0 544.000000 544.000000"
 preserveAspectRatio="xMidYMid meet">

<g transform="translate(0.000000,544.000000) scale(0.100000,-0.100000)"
fill="#000000" stroke="none">
<path d="M2520 5414 c-583 -55 -1085 -257 -1515 -612 -527 -433 -860 -1031
-962 -1727 -24 -167 -24 -543 0 -710 91 -616 359 -1151 788 -1571 421 -411
934 -663 1534 -751 167 -24 543 -24 710 0 258 38 501 106 724 203 786 344
1369 1050 1555 1886 48 216 60 336 60 588 0 252 -12 372 -60 588 -243 1090
-1131 1914 -2246 2083 -129 19 -478 33 -588 23z m890 -324 l0 -70 150 0 150 0
0 -75 0 -75 145 0 145 0 0 -75 0 -75 150 0 150 0 0 -75 0 -75 75 0 75 0 0 -75
0 -75 75 0 75 0 0 -75 0 -75 75 0 75 0 0 -75 0 -75 75 0 75 0 0 -220 0 -220
-75 0 -75 0 0 -375 0 -375 -75 0 -75 0 0 -150 0 -150 -75 0 -75 0 0 -145 0
-145 -75 0 -75 0 0 -75 0 -75 -75 0 -75 0 0 75 0 75 75 0 75 0 0 225 0 224
-71 3 -71 3 2 293 1 292 -76 0 -75 0 0 150 0 150 -75 0 -75 0 0 -75 0 -75 -75
0 -75 0 0 75 0 75 75 0 75 0 0 75 0 75 -300 0 -300 0 0 70 0 69 -72 3 -73 3 0
73 0 73 220 2 220 2 3 73 3 72 -746 0 -745 0 0 -75 0 -75 -150 0 -150 0 0 -75
0 -75 -75 0 -75 0 0 -145 0 -145 75 0 75 0 0 75 0 75 75 0 75 0 0 68 0 69 113
6 c61 4 163 7 225 7 l112 0 0 70 0 70 220 0 220 0 0 -75 0 -75 -70 0 -70 0 0
-70 0 -70 -87 -2 c-49 -1 -184 -1 -300 1 l-213 4 0 -77 0 -76 -75 0 -75 0 0
-75 0 -75 -75 0 -75 0 0 -225 0 -225 -75 0 -75 0 0 -75 0 -75 -70 0 -69 0 -3
-72 -3 -73 -72 -3 -72 -3 -3 -72 -3 -72 -72 -3 -73 -3 0 -144 0 -145 75 0 75
0 0 -75 0 -75 75 0 75 0 0 -75 0 -75 70 0 70 0 0 -75 0 -75 -145 0 c-109 0
-145 3 -146 13 0 6 0 40 1 75 l1 62 -75 0 -76 0 0 75 0 75 -75 0 -75 0 0 75 0
75 -75 0 -75 0 0 75 0 75 -75 0 -75 0 0 220 0 220 -75 0 -75 0 0 75 0 75 -75
0 -75 0 0 -220 0 -220 75 0 75 0 0 -150 0 -150 -75 0 -75 0 0 75 0 75 -70 0
-70 0 0 445 0 445 70 0 70 0 2 223 3 222 73 3 72 3 0 144 0 145 75 0 75 0 0
75 0 75 75 0 75 0 0 75 0 75 75 0 75 0 0 75 0 75 75 0 75 0 0 75 0 75 150 0
150 0 0 75 0 75 145 0 144 0 3 73 3 72 148 3 147 3 0 69 0 70 670 0 670 0 0
-70z m-1040 -1485 l0 -75 -75 0 -75 0 0 75 0 75 75 0 75 0 0 -75z m440 -225
l0 -150 75 0 75 0 0 -150 0 -150 -145 0 -145 0 0 -72 0 -73 445 0 445 0 0 73
0 72 -150 0 -150 0 0 150 0 150 75 0 75 0 0 150 0 150 75 0 75 0 0 -75 0 -74
73 -3 72 -3 3 -72 3 -73 75 0 74 0 -2 -297 -3 -298 -70 0 -70 -1 -3 -72 -3
-72 -74 0 -75 0 0 -75 0 -75 -520 0 -519 0 -3 73 -3 72 -147 0 -148 -1 0 73 0
72 -72 3 -73 3 -3 148 -3 147 76 0 75 0 0 150 0 150 75 0 75 0 0 76 0 76 28
-2 c15 -1 48 -2 75 -1 l47 1 0 75 0 75 145 0 145 0 0 -150z m2240 -75 l0 -75
-75 0 -75 0 0 75 0 75 75 0 75 0 0 -75z m140 -960 c0 -157 1 -288 3 -292 1 -5
-31 -9 -70 -11 l-73 -3 -2 -222 -3 -222 -72 -3 -73 -3 0 -144 0 -145 -75 0
-75 0 0 370 0 370 75 0 75 0 0 150 0 150 75 0 75 0 0 145 0 145 70 0 70 0 0
-285z m-4760 -230 l0 -75 -70 0 -70 0 0 75 0 75 70 0 70 0 0 -75z m300 -450
l0 -75 75 0 75 0 0 -145 0 -145 75 0 75 0 0 -150 0 -150 75 0 75 0 0 -75 0
-75 -75 0 -75 0 0 75 0 75 -75 0 -75 0 0 75 0 75 -75 0 -75 0 0 75 0 75 -75 0
-75 0 0 145 0 144 -72 3 -73 3 -3 73 -3 72 151 0 150 0 0 -75z"/>
<path d="M3560 4050 l0 -70 150 0 150 0 0 70 0 70 -150 0 -150 0 0 -70z"/>
<path d="M3860 3900 l0 -70 70 0 70 0 0 70 0 70 -70 0 -70 0 0 -70z"/>
<path d="M880 3530 l0 -150 75 0 75 0 0 -299 0 -298 75 -2 75 -2 0 76 0 75 75
0 75 0 0 75 0 75 69 0 69 0 7 150 7 150 69 0 69 0 0 150 0 150 -370 0 -370 0
0 -150z"/>
</g>
</svg>
